<svg width="41" height="42" viewBox="0 0 41 42" fill="none" xmlns="http://www.w3.org/2000/svg">
    <path d="M2 17.1053H39M2 17.1053V37.5527C2 38.0691 2.20517 38.5645 2.57037 38.9297C2.93557 39.2949 3.43089 39.5 3.94737 39.5H37.0526C37.5691 39.5 38.0644 39.2949 38.4296 38.9297C38.7948 38.5645 39 38.0691 39 37.5527V17.1053M2 17.1053V7.36845C2 6.85198 2.20517 6.35665 2.57037 5.99145C2.93557 5.62625 3.43089 5.42108 3.94737 5.42108H37.0526C37.5691 5.42108 38.0644 5.62625 38.4296 5.99145C38.7948 6.35665 39 6.85198 39 7.36845V17.1053" stroke="white" stroke-width="3.89474" stroke-linejoin="round"/>
    <path d="M12.7091 2.5V10.2895M28.288 2.5V10.2895M24.3933 31.7105H30.2354M10.7617 31.7105H16.6038M24.3933 23.9211H30.2354M10.7617 23.9211H16.6038" stroke="white" stroke-width="3.89474" stroke-linecap="round" stroke-linejoin="round"/>
    </svg>
    