<svg width="39" height="38" viewBox="0 0 39 38" fill="none" xmlns="http://www.w3.org/2000/svg">
    <path fill-rule="evenodd" clip-rule="evenodd" d="M19.9521 34.4375C22.6623 34.4415 25.3252 33.7286 27.6709 32.3713V27.3125C27.6709 25.8953 27.1079 24.536 26.1057 23.5339C25.1036 22.5318 23.7444 21.9688 22.3271 21.9688H17.5771C16.1599 21.9688 14.8007 22.5318 13.7985 23.5339C12.7964 24.536 12.2334 25.8953 12.2334 27.3125V32.3713C14.5791 33.7286 17.242 34.4415 19.9521 34.4375ZM31.2334 27.3125V29.5379C33.2871 27.3394 34.6536 24.5887 35.165 21.624C35.6764 18.6593 35.3104 15.6097 34.1119 12.8502C32.9134 10.0907 30.9348 7.74158 28.4192 6.0915C25.9036 4.44143 22.9606 3.56236 19.9521 3.56236C16.9437 3.56236 14.0007 4.44143 11.4851 6.0915C8.9695 7.74158 6.99085 10.0907 5.7924 12.8502C4.59395 15.6097 4.22792 18.6593 4.73931 21.624C5.2507 24.5887 6.61723 27.3394 8.6709 29.5379V27.3125C8.67088 25.4763 9.23808 23.685 10.2949 22.1835C11.3518 20.6819 12.8467 19.5436 14.5751 18.924C13.6783 17.8925 13.0971 16.6247 12.9009 15.272C12.7047 13.9192 12.9018 12.5386 13.4686 11.2948C14.0354 10.0509 14.948 8.99636 16.0976 8.25689C17.2472 7.51741 18.5853 7.12423 19.9521 7.12423C21.319 7.12423 22.6571 7.51741 23.8067 8.25689C24.9563 8.99636 25.8689 10.0509 26.4357 11.2948C27.0025 12.5386 27.1996 13.9192 27.0034 15.272C26.8072 16.6247 26.226 17.8925 25.3291 18.924C27.0576 19.5436 28.5525 20.6819 29.6094 22.1835C30.6662 23.685 31.2334 25.4763 31.2334 27.3125ZM19.9521 38C24.9913 38 29.824 35.9982 33.3872 32.435C36.9504 28.8718 38.9521 24.0391 38.9521 19C38.9521 13.9609 36.9504 9.12816 33.3872 5.56497C29.824 2.00178 24.9913 0 19.9521 0C14.913 0 10.0803 2.00178 6.51712 5.56497C2.95393 9.12816 0.952148 13.9609 0.952148 19C0.952148 24.0391 2.95393 28.8718 6.51712 32.435C10.0803 35.9982 14.913 38 19.9521 38ZM23.5146 14.25C23.5146 15.1948 23.1393 16.101 22.4712 16.7691C21.8031 17.4372 20.897 17.8125 19.9521 17.8125C19.0073 17.8125 18.1012 17.4372 17.4331 16.7691C16.765 16.101 16.3896 15.1948 16.3896 14.25C16.3896 13.3052 16.765 12.399 17.4331 11.7309C18.1012 11.0628 19.0073 10.6875 19.9521 10.6875C20.897 10.6875 21.8031 11.0628 22.4712 11.7309C23.1393 12.399 23.5146 13.3052 23.5146 14.25Z" fill="white"/>
    </svg>
    