<svg width="354" height="62" viewBox="0 0 354 62" fill="none" xmlns="http://www.w3.org/2000/svg">
    <rect x="58.1191" y="5.2478" width="23.2805" height="53.3058" rx="11.6402" fill="#ED712E"/>
    <path fill-rule="evenodd" clip-rule="evenodd" d="M98.0739 5.24768C91.6452 5.24768 86.4337 10.4592 86.4337 16.8879V38.942H86.0986L86.0986 46.7458C86.0986 51.3737 88.7993 55.3708 92.7107 57.247C94.3157 58.0817 96.1397 58.5535 98.0739 58.5535C98.7483 58.5535 99.4092 58.4961 100.052 58.386H125.347C130.716 58.386 135.069 54.0333 135.069 48.664C135.069 43.2947 130.716 38.942 125.347 38.942H109.714V16.8879C109.714 10.4592 104.503 5.24768 98.0739 5.24768Z" fill="#ED712E"/>
    <path fill-rule="evenodd" clip-rule="evenodd" d="M151.862 5.24768C145.434 5.24768 140.222 10.4592 140.222 16.8879V38.9422H140.115L140.115 46.746C140.115 49.0858 140.806 51.2644 141.994 53.0891C144.052 56.3713 147.702 58.5535 151.862 58.5535C152.536 58.5535 153.197 58.4962 153.839 58.3863H179.363C184.733 58.3863 189.085 54.0336 189.085 48.6642C189.085 43.2949 184.733 38.9422 179.363 38.9422H163.503V16.8879C163.503 10.4592 158.291 5.24768 151.862 5.24768Z" fill="#ED712E"/>
    <path fill-rule="evenodd" clip-rule="evenodd" d="M317.006 5.24768C310.577 5.24768 305.365 10.4592 305.365 16.8879V38.9422H305.03L305.03 46.746C305.03 51.3763 307.734 55.3751 311.648 57.2501C313.252 58.0829 315.074 58.5535 317.006 58.5535C317.679 58.5535 318.34 58.4962 318.982 58.3863H344.278C349.648 58.3863 354 54.0336 354 48.6642C354 43.2949 349.648 38.9422 344.278 38.9422H328.646V16.8879C328.646 10.4592 323.434 5.24768 317.006 5.24768Z" fill="#ED712E"/>
    <path fill-rule="evenodd" clip-rule="evenodd" d="M268.795 6.33508C269.226 6.33508 269.648 6.37035 270.06 6.43815C273.496 6.70388 276.781 8.48639 278.846 11.5736L298.369 40.7639C301.943 46.1076 300.508 53.3368 295.164 56.9107C289.82 60.4847 282.591 59.05 279.017 53.7063L271.297 42.1632V46.9127C271.297 53.3415 266.086 58.553 259.657 58.553C253.228 58.553 248.017 53.3415 248.017 46.9127V17.9753C248.017 17.6522 248.03 17.3321 248.056 17.0157C248.03 16.7589 248.017 16.4983 248.017 16.2347V14.059C248.017 9.79319 251.475 6.33508 255.741 6.33508H259.657H268.795ZM265.311 30.2417C269.442 30.2417 272.79 26.8931 272.79 22.7624C272.79 18.6317 269.442 15.2831 265.311 15.2831C261.18 15.2831 257.832 18.6317 257.832 22.7624C257.832 26.8931 261.18 30.2417 265.311 30.2417Z" fill="#ED712E"/>
    <path d="M226.784 4.375C235.733 4.375 242.987 11.6295 242.987 20.5784C242.987 29.5273 235.733 36.7818 226.784 36.7818L203.379 36.7818L203.379 4.375L226.784 4.375Z" fill="#ED712E"/>
    <rect x="192.212" y="2.57463" width="26.8813" height="56.9065" rx="13.4406" fill="#ED712E" stroke="white" stroke-width="3.60075"/>
    <path d="M36.8718 4.375C45.8207 4.375 53.0752 11.6295 53.0752 20.5784C53.0752 29.5273 45.8207 36.7818 36.8718 36.7818L13.4669 36.7818L13.4669 4.375L36.8718 4.375Z" fill="#ED712E"/>
    <rect x="2.19865" y="2.57463" width="26.8813" height="56.9065" rx="13.4406" fill="#ED712E" stroke="white" stroke-width="3.60075"/>
    </svg>
    